<svg xmlns="http://www.w3.org/2000/svg" xmlns:xlink="http://www.w3.org/1999/xlink" width="512" zoomAndPan="magnify" viewBox="0 0 384 135.000003" height="180" preserveAspectRatio="xMidYMid meet" version="1.2"><defs/><g id="21cd931349"><g style="fill:#e06b35;fill-opacity:1;"><g transform="translate(25.848781, 96.608071)"><path style="stroke:none" d="M 37.703125 -59.671875 C 37.703125 -58.941406 37.457031 -58.332031 36.96875 -57.84375 C 36.414062 -57.289062 35.769531 -57.015625 35.03125 -57.015625 L 17.65625 -57.015625 C 16.914062 -57.015625 16.300781 -56.769531 15.8125 -56.28125 C 15.257812 -55.726562 14.984375 -55.082031 14.984375 -54.34375 L 14.984375 -48.828125 C 14.984375 -48.085938 15.257812 -47.472656 15.8125 -46.984375 C 16.300781 -46.429688 16.914062 -46.15625 17.65625 -46.15625 L 29.15625 -46.15625 C 29.945312 -46.15625 30.617188 -45.910156 31.171875 -45.421875 C 31.660156 -44.867188 31.90625 -44.226562 31.90625 -43.5 L 31.90625 -38.53125 C 31.90625 -37.789062 31.660156 -37.144531 31.171875 -36.59375 C 30.617188 -36.039062 29.945312 -35.765625 29.15625 -35.765625 L 17.65625 -35.765625 C 16.914062 -35.765625 16.300781 -35.519531 15.8125 -35.03125 C 15.257812 -34.476562 14.984375 -33.835938 14.984375 -33.109375 L 14.984375 -2.671875 C 14.984375 -1.929688 14.738281 -1.316406 14.25 -0.828125 C 13.695312 -0.273438 13.054688 0 12.328125 0 L 7.265625 0 C 6.523438 0 5.910156 -0.273438 5.421875 -0.828125 C 4.867188 -1.316406 4.59375 -1.929688 4.59375 -2.671875 L 4.59375 -64.734375 C 4.59375 -65.472656 4.867188 -66.117188 5.421875 -66.671875 C 5.910156 -67.160156 6.523438 -67.40625 7.265625 -67.40625 L 35.03125 -67.40625 C 35.769531 -67.40625 36.414062 -67.160156 36.96875 -66.671875 C 37.457031 -66.117188 37.703125 -65.472656 37.703125 -64.734375 Z M 37.703125 -59.671875 "/></g></g><g style="fill:#e06b35;fill-opacity:1;"><g transform="translate(68.139726, 96.608071)"><path style="stroke:none" d="M 12.328125 -67.40625 C 13.054688 -67.40625 13.695312 -67.160156 14.25 -66.671875 C 14.738281 -66.117188 14.984375 -65.472656 14.984375 -64.734375 L 14.984375 -2.671875 C 14.984375 -1.929688 14.738281 -1.316406 14.25 -0.828125 C 13.695312 -0.273438 13.054688 0 12.328125 0 L 7.265625 0 C 6.523438 0 5.910156 -0.273438 5.421875 -0.828125 C 4.867188 -1.316406 4.59375 -1.929688 4.59375 -2.671875 L 4.59375 -64.734375 C 4.59375 -65.472656 4.867188 -66.117188 5.421875 -66.671875 C 5.910156 -67.160156 6.523438 -67.40625 7.265625 -67.40625 Z M 12.328125 -67.40625 "/></g></g><g style="fill:#e06b35;fill-opacity:1;"><g transform="translate(87.722268, 96.608071)"><path style="stroke:none" d="M 42.015625 0 C 40.734375 0 39.878906 -0.671875 39.453125 -2.015625 C 39.265625 -2.691406 39.019531 -3.675781 38.71875 -4.96875 C 38.34375 -6.1875 37.878906 -7.867188 37.328125 -10.015625 C 36.898438 -11.367188 36.015625 -12.046875 34.671875 -12.046875 L 19.953125 -12.046875 C 18.609375 -12.046875 17.71875 -11.367188 17.28125 -10.015625 C 16.851562 -8.367188 16.488281 -6.867188 16.1875 -5.515625 C 15.8125 -4.171875 15.472656 -3.003906 15.171875 -2.015625 C 14.742188 -0.671875 13.882812 0 12.59375 0 L 7.359375 0 C 6.492188 0 5.785156 -0.367188 5.234375 -1.109375 C 4.679688 -1.773438 4.53125 -2.539062 4.78125 -3.40625 C 5.394531 -5.664062 6.160156 -8.546875 7.078125 -12.046875 C 7.992188 -15.472656 9.003906 -19.210938 10.109375 -23.265625 C 11.210938 -27.242188 12.347656 -31.378906 13.515625 -35.671875 C 14.617188 -39.898438 15.691406 -43.945312 16.734375 -47.8125 C 17.710938 -51.613281 18.632812 -55.078125 19.5 -58.203125 C 20.289062 -61.265625 20.929688 -63.65625 21.421875 -65.375 C 21.546875 -65.988281 21.851562 -66.476562 22.34375 -66.84375 C 22.832031 -67.21875 23.382812 -67.40625 24 -67.40625 L 30.625 -67.40625 C 31.238281 -67.40625 31.789062 -67.21875 32.28125 -66.84375 C 32.769531 -66.476562 33.070312 -65.988281 33.1875 -65.375 C 35.332031 -57.28125 37.203125 -50.351562 38.796875 -44.59375 C 40.335938 -38.832031 41.628906 -33.988281 42.671875 -30.0625 C 43.710938 -26.144531 44.566406 -22.988281 45.234375 -20.59375 C 45.847656 -18.207031 46.367188 -16.304688 46.796875 -14.890625 C 47.171875 -13.421875 47.476562 -12.320312 47.71875 -11.59375 C 47.90625 -10.789062 48.09375 -10.050781 48.28125 -9.375 C 48.457031 -8.707031 48.671875 -7.941406 48.921875 -7.078125 C 49.097656 -6.222656 49.40625 -5 49.84375 -3.40625 C 50.082031 -2.539062 49.925781 -1.773438 49.375 -1.109375 C 48.820312 -0.367188 48.117188 0 47.265625 0 Z M 21.515625 -25.84375 C 21.273438 -24.976562 21.429688 -24.210938 21.984375 -23.546875 C 22.523438 -22.804688 23.226562 -22.4375 24.09375 -22.4375 L 30.53125 -22.4375 C 31.382812 -22.4375 32.085938 -22.804688 32.640625 -23.546875 C 33.191406 -24.210938 33.347656 -24.976562 33.109375 -25.84375 C 32.617188 -27.550781 32.125 -29.390625 31.625 -31.359375 C 31.070312 -33.316406 30.492188 -35.398438 29.890625 -37.609375 C 29.703125 -38.285156 29.363281 -38.804688 28.875 -39.171875 C 28.382812 -39.472656 27.863281 -39.625 27.3125 -39.625 C 26.757812 -39.625 26.238281 -39.472656 25.75 -39.171875 C 25.257812 -38.804688 24.921875 -38.285156 24.734375 -37.609375 C 24.179688 -35.648438 23.660156 -33.6875 23.171875 -31.71875 C 22.617188 -29.757812 22.066406 -27.800781 21.515625 -25.84375 Z M 21.515625 -25.84375 "/></g></g><g style="fill:#e06b35;fill-opacity:1;"><g transform="translate(132.218456, 96.608071)"><path style="stroke:none" d="M 42.578125 -59.671875 C 42.578125 -58.941406 42.332031 -58.332031 41.84375 -57.84375 C 41.289062 -57.289062 40.613281 -57.015625 39.8125 -57.015625 L 31.453125 -57.015625 C 30.710938 -57.015625 30.097656 -56.769531 29.609375 -56.28125 C 29.054688 -55.726562 28.78125 -55.082031 28.78125 -54.34375 L 28.78125 -2.671875 C 28.78125 -1.929688 28.535156 -1.316406 28.046875 -0.828125 C 27.492188 -0.273438 26.816406 0 26.015625 0 L 21.0625 0 C 20.320312 0 19.707031 -0.273438 19.21875 -0.828125 C 18.664062 -1.316406 18.390625 -1.929688 18.390625 -2.671875 L 18.390625 -54.34375 C 18.390625 -55.082031 18.144531 -55.726562 17.65625 -56.28125 C 17.101562 -56.769531 16.457031 -57.015625 15.71875 -57.015625 L 7.265625 -57.015625 C 6.523438 -57.015625 5.910156 -57.289062 5.421875 -57.84375 C 4.867188 -58.332031 4.59375 -58.941406 4.59375 -59.671875 L 4.59375 -64.734375 C 4.59375 -65.472656 4.867188 -66.117188 5.421875 -66.671875 C 5.910156 -67.160156 6.523438 -67.40625 7.265625 -67.40625 L 39.8125 -67.40625 C 40.613281 -67.40625 41.289062 -67.160156 41.84375 -66.671875 C 42.332031 -66.117188 42.578125 -65.472656 42.578125 -64.734375 Z M 42.578125 -59.671875 "/></g></g><g style="fill:#538046;fill-opacity:1;"><g transform="translate(179.402352, 96.608071)"><path style="stroke:none" d="M 44.78125 -67.40625 C 45.519531 -67.40625 46.164062 -67.160156 46.71875 -66.671875 C 47.207031 -66.117188 47.453125 -65.472656 47.453125 -64.734375 L 47.453125 -2.671875 C 47.453125 -1.929688 47.207031 -1.316406 46.71875 -0.828125 C 46.164062 -0.273438 45.519531 0 44.78125 0 L 37.703125 0 C 36.597656 0 35.800781 -0.519531 35.3125 -1.5625 L 16.921875 -40.921875 C 16.734375 -41.410156 16.363281 -41.59375 15.8125 -41.46875 C 15.257812 -41.34375 14.984375 -41.003906 14.984375 -40.453125 L 14.984375 -2.671875 C 14.984375 -1.929688 14.738281 -1.316406 14.25 -0.828125 C 13.695312 -0.273438 13.023438 0 12.234375 0 L 7.265625 0 C 6.523438 0 5.910156 -0.273438 5.421875 -0.828125 C 4.867188 -1.316406 4.59375 -1.929688 4.59375 -2.671875 L 4.59375 -64.734375 C 4.59375 -65.472656 4.867188 -66.117188 5.421875 -66.671875 C 5.910156 -67.160156 6.523438 -67.40625 7.265625 -67.40625 L 14.34375 -67.40625 C 15.507812 -67.40625 16.304688 -66.882812 16.734375 -65.84375 L 35.125 -26.484375 C 35.3125 -25.992188 35.710938 -25.8125 36.328125 -25.9375 C 36.816406 -26.050781 37.0625 -26.382812 37.0625 -26.9375 L 37.0625 -64.734375 C 37.0625 -65.472656 37.335938 -66.117188 37.890625 -66.671875 C 38.441406 -67.160156 39.082031 -67.40625 39.8125 -67.40625 Z M 44.78125 -67.40625 "/></g></g><g style="fill:#538046;fill-opacity:1;"><g transform="translate(231.438615, 96.608071)"><path style="stroke:none" d="M 37.703125 -59.671875 C 37.703125 -58.941406 37.457031 -58.332031 36.96875 -57.84375 C 36.414062 -57.289062 35.769531 -57.015625 35.03125 -57.015625 L 17.65625 -57.015625 C 16.914062 -57.015625 16.300781 -56.769531 15.8125 -56.28125 C 15.257812 -55.726562 14.984375 -55.082031 14.984375 -54.34375 L 14.984375 -48.828125 C 14.984375 -48.085938 15.257812 -47.472656 15.8125 -46.984375 C 16.300781 -46.429688 16.914062 -46.15625 17.65625 -46.15625 L 29.15625 -46.15625 C 29.945312 -46.15625 30.617188 -45.910156 31.171875 -45.421875 C 31.660156 -44.867188 31.90625 -44.226562 31.90625 -43.5 L 31.90625 -38.53125 C 31.90625 -37.789062 31.660156 -37.144531 31.171875 -36.59375 C 30.617188 -36.039062 29.945312 -35.765625 29.15625 -35.765625 L 17.65625 -35.765625 C 16.914062 -35.765625 16.300781 -35.519531 15.8125 -35.03125 C 15.257812 -34.476562 14.984375 -33.835938 14.984375 -33.109375 L 14.984375 -13.0625 C 14.984375 -12.320312 15.257812 -11.707031 15.8125 -11.21875 C 16.300781 -10.664062 16.914062 -10.390625 17.65625 -10.390625 L 35.03125 -10.390625 C 35.769531 -10.390625 36.414062 -10.144531 36.96875 -9.65625 C 37.457031 -9.101562 37.703125 -8.457031 37.703125 -7.71875 L 37.703125 -2.671875 C 37.703125 -1.929688 37.457031 -1.316406 36.96875 -0.828125 C 36.414062 -0.273438 35.769531 0 35.03125 0 L 7.265625 0 C 6.523438 0 5.910156 -0.273438 5.421875 -0.828125 C 4.867188 -1.316406 4.59375 -1.929688 4.59375 -2.671875 L 4.59375 -64.734375 C 4.59375 -65.472656 4.867188 -66.117188 5.421875 -66.671875 C 5.910156 -67.160156 6.523438 -67.40625 7.265625 -67.40625 L 35.03125 -67.40625 C 35.769531 -67.40625 36.414062 -67.160156 36.96875 -66.671875 C 37.457031 -66.117188 37.703125 -65.472656 37.703125 -64.734375 Z M 37.703125 -59.671875 "/></g></g><g style="fill:#538046;fill-opacity:1;"><g transform="translate(271.890604, 96.608071)"><path style="stroke:none" d="M 21.0625 -67.40625 C 26.394531 -67.40625 30.410156 -65.960938 33.109375 -63.078125 C 35.804688 -60.203125 37.15625 -56.125 37.15625 -50.84375 C 37.15625 -50.238281 36.96875 -49.75 36.59375 -49.375 C 36.164062 -48.945312 35.644531 -48.734375 35.03125 -48.734375 L 28.875 -48.734375 C 28.257812 -48.734375 27.769531 -48.945312 27.40625 -49.375 C 26.976562 -49.75 26.765625 -50.238281 26.765625 -50.84375 L 26.765625 -51.5 C 26.765625 -53.820312 26.300781 -55.503906 25.375 -56.546875 C 24.457031 -57.523438 23.109375 -58.015625 21.328125 -58.015625 C 19.554688 -58.015625 18.207031 -57.523438 17.28125 -56.546875 C 16.300781 -55.503906 15.8125 -53.820312 15.8125 -51.5 C 15.8125 -50.269531 15.96875 -49.132812 16.28125 -48.09375 C 16.582031 -46.988281 17.101562 -45.882812 17.84375 -44.78125 C 18.570312 -43.675781 19.550781 -42.507812 20.78125 -41.28125 C 21.945312 -40 23.414062 -38.625 25.1875 -37.15625 C 27.457031 -35.25 29.390625 -33.46875 30.984375 -31.8125 C 32.515625 -30.09375 33.742188 -28.4375 34.671875 -26.84375 C 35.585938 -25.195312 36.257812 -23.546875 36.6875 -21.890625 C 37.050781 -20.234375 37.234375 -18.453125 37.234375 -16.546875 C 37.234375 -11.210938 35.882812 -7.140625 33.1875 -4.328125 C 30.4375 -1.441406 26.363281 0 20.96875 0 C 15.570312 0 11.492188 -1.441406 8.734375 -4.328125 C 5.972656 -7.140625 4.59375 -11.210938 4.59375 -16.546875 L 4.59375 -18.578125 C 4.59375 -19.128906 4.804688 -19.617188 5.234375 -20.046875 C 5.609375 -20.410156 6.070312 -20.59375 6.625 -20.59375 L 12.875 -20.59375 C 13.425781 -20.59375 13.914062 -20.410156 14.34375 -20.046875 C 14.769531 -19.617188 14.984375 -19.128906 14.984375 -18.578125 L 14.984375 -15.90625 C 14.984375 -13.570312 15.472656 -11.914062 16.453125 -10.9375 C 17.441406 -9.957031 18.820312 -9.46875 20.59375 -9.46875 C 22.375 -9.46875 23.785156 -9.957031 24.828125 -10.9375 C 25.804688 -11.914062 26.296875 -13.570312 26.296875 -15.90625 C 26.296875 -17.070312 26.144531 -18.207031 25.84375 -19.3125 C 25.53125 -20.414062 25.007812 -21.519531 24.28125 -22.625 C 23.539062 -23.726562 22.585938 -24.921875 21.421875 -26.203125 C 20.203125 -27.429688 18.703125 -28.78125 16.921875 -30.25 C 14.648438 -32.15625 12.75 -33.929688 11.21875 -35.578125 C 9.6875 -37.234375 8.460938 -38.890625 7.546875 -40.546875 C 6.554688 -42.203125 5.878906 -43.859375 5.515625 -45.515625 C 5.085938 -47.171875 4.875 -48.945312 4.875 -50.84375 C 4.875 -56.125 6.222656 -60.203125 8.921875 -63.078125 C 11.617188 -65.960938 15.664062 -67.40625 21.0625 -67.40625 Z M 21.0625 -67.40625 "/></g></g><g style="fill:#538046;fill-opacity:1;"><g transform="translate(310.963414, 96.608071)"><path style="stroke:none" d="M 42.578125 -59.671875 C 42.578125 -58.941406 42.332031 -58.332031 41.84375 -57.84375 C 41.289062 -57.289062 40.613281 -57.015625 39.8125 -57.015625 L 31.453125 -57.015625 C 30.710938 -57.015625 30.097656 -56.769531 29.609375 -56.28125 C 29.054688 -55.726562 28.78125 -55.082031 28.78125 -54.34375 L 28.78125 -2.671875 C 28.78125 -1.929688 28.535156 -1.316406 28.046875 -0.828125 C 27.492188 -0.273438 26.816406 0 26.015625 0 L 21.0625 0 C 20.320312 0 19.707031 -0.273438 19.21875 -0.828125 C 18.664062 -1.316406 18.390625 -1.929688 18.390625 -2.671875 L 18.390625 -54.34375 C 18.390625 -55.082031 18.144531 -55.726562 17.65625 -56.28125 C 17.101562 -56.769531 16.457031 -57.015625 15.71875 -57.015625 L 7.265625 -57.015625 C 6.523438 -57.015625 5.910156 -57.289062 5.421875 -57.84375 C 4.867188 -58.332031 4.59375 -58.941406 4.59375 -59.671875 L 4.59375 -64.734375 C 4.59375 -65.472656 4.867188 -66.117188 5.421875 -66.671875 C 5.910156 -67.160156 6.523438 -67.40625 7.265625 -67.40625 L 39.8125 -67.40625 C 40.613281 -67.40625 41.289062 -67.160156 41.84375 -66.671875 C 42.332031 -66.117188 42.578125 -65.472656 42.578125 -64.734375 Z M 42.578125 -59.671875 "/></g></g></g></svg>